<mxfile host="app.diagrams.net" modified="2024-04-08T13:57:59.442Z" agent="Mozilla/5.0 (Windows NT 10.0; Win64; x64) AppleWebKit/537.36 (KHTML, like Gecko) Chrome/123.0.0.0 Safari/537.36" etag="x5DUWps7YC_c8NsKPY2R" version="24.2.2" type="device">
  <diagram id="C5RBs43oDa-KdzZeNtuy" name="Page-1">
    <mxGraphModel dx="4168" dy="962" grid="1" gridSize="10" guides="1" tooltips="1" connect="1" arrows="1" fold="1" page="1" pageScale="1" pageWidth="827" pageHeight="1169" math="0" shadow="0">
      <root>
        <mxCell id="WIyWlLk6GJQsqaUBKTNV-0" />
        <mxCell id="WIyWlLk6GJQsqaUBKTNV-1" parent="WIyWlLk6GJQsqaUBKTNV-0" />
        <mxCell id="yD4EHTw2eAXKTjDuRLVo-10" value="" style="edgeStyle=orthogonalEdgeStyle;rounded=0;orthogonalLoop=1;jettySize=auto;html=1;strokeWidth=2;fillColor=#f8cecc;strokeColor=#b85450;fontStyle=1" edge="1" parent="WIyWlLk6GJQsqaUBKTNV-1" source="yD4EHTw2eAXKTjDuRLVo-6" target="yD4EHTw2eAXKTjDuRLVo-9">
          <mxGeometry relative="1" as="geometry" />
        </mxCell>
        <mxCell id="yD4EHTw2eAXKTjDuRLVo-6" value="&lt;div&gt;Class&lt;/div&gt;&lt;div&gt;ServiceActionLibrary&lt;/div&gt;" style="shape=document;whiteSpace=wrap;html=1;boundedLbl=1;fillColor=#ffe6cc;strokeColor=#d79b00;fontStyle=1" vertex="1" parent="WIyWlLk6GJQsqaUBKTNV-1">
          <mxGeometry x="-2450" y="110" width="120" height="80" as="geometry" />
        </mxCell>
        <mxCell id="yD4EHTw2eAXKTjDuRLVo-12" value="" style="edgeStyle=orthogonalEdgeStyle;rounded=0;orthogonalLoop=1;jettySize=auto;html=1;strokeWidth=2;fillColor=#f8cecc;strokeColor=#b85450;fontStyle=1" edge="1" parent="WIyWlLk6GJQsqaUBKTNV-1" source="yD4EHTw2eAXKTjDuRLVo-9" target="yD4EHTw2eAXKTjDuRLVo-11">
          <mxGeometry relative="1" as="geometry" />
        </mxCell>
        <mxCell id="yD4EHTw2eAXKTjDuRLVo-9" value="def start()" style="whiteSpace=wrap;html=1;fillColor=#ffe6cc;strokeColor=#d79b00;fontStyle=1" vertex="1" parent="WIyWlLk6GJQsqaUBKTNV-1">
          <mxGeometry x="-2450" y="280" width="120" height="60" as="geometry" />
        </mxCell>
        <mxCell id="yD4EHTw2eAXKTjDuRLVo-14" value="" style="edgeStyle=orthogonalEdgeStyle;rounded=0;orthogonalLoop=1;jettySize=auto;html=1;strokeWidth=2;fillColor=#f8cecc;strokeColor=#b85450;fontStyle=1" edge="1" parent="WIyWlLk6GJQsqaUBKTNV-1" source="yD4EHTw2eAXKTjDuRLVo-11" target="yD4EHTw2eAXKTjDuRLVo-13">
          <mxGeometry relative="1" as="geometry">
            <Array as="points">
              <mxPoint x="-2320" y="448" />
              <mxPoint x="-2320" y="450" />
            </Array>
          </mxGeometry>
        </mxCell>
        <mxCell id="yD4EHTw2eAXKTjDuRLVo-15" value="True" style="edgeLabel;html=1;align=center;verticalAlign=middle;resizable=0;points=[];fontStyle=1" vertex="1" connectable="0" parent="yD4EHTw2eAXKTjDuRLVo-14">
          <mxGeometry x="-0.3745" y="-1" relative="1" as="geometry">
            <mxPoint x="1" y="-11" as="offset" />
          </mxGeometry>
        </mxCell>
        <mxCell id="yD4EHTw2eAXKTjDuRLVo-91" value="" style="edgeStyle=orthogonalEdgeStyle;rounded=0;orthogonalLoop=1;jettySize=auto;html=1;strokeWidth=2;fillColor=#f8cecc;strokeColor=#b85450;fontStyle=1" edge="1" parent="WIyWlLk6GJQsqaUBKTNV-1" source="yD4EHTw2eAXKTjDuRLVo-11" target="yD4EHTw2eAXKTjDuRLVo-90">
          <mxGeometry relative="1" as="geometry" />
        </mxCell>
        <mxCell id="yD4EHTw2eAXKTjDuRLVo-11" value="while&amp;nbsp;&lt;div&gt;decision&lt;/div&gt;" style="rhombus;whiteSpace=wrap;html=1;fillColor=#ffe6cc;strokeColor=#d79b00;fontStyle=1" vertex="1" parent="WIyWlLk6GJQsqaUBKTNV-1">
          <mxGeometry x="-2430" y="407.5" width="80" height="80" as="geometry" />
        </mxCell>
        <mxCell id="yD4EHTw2eAXKTjDuRLVo-43" style="edgeStyle=orthogonalEdgeStyle;rounded=0;orthogonalLoop=1;jettySize=auto;html=1;entryX=-0.017;entryY=0.586;entryDx=0;entryDy=0;entryPerimeter=0;strokeWidth=2;fillColor=#f8cecc;strokeColor=#b85450;fontStyle=1" edge="1" parent="WIyWlLk6GJQsqaUBKTNV-1" source="yD4EHTw2eAXKTjDuRLVo-13" target="yD4EHTw2eAXKTjDuRLVo-21">
          <mxGeometry relative="1" as="geometry">
            <mxPoint x="-2080" y="145.0000000000001" as="targetPoint" />
            <Array as="points">
              <mxPoint x="-2080" y="465" />
              <mxPoint x="-2080" y="158" />
            </Array>
          </mxGeometry>
        </mxCell>
        <mxCell id="yD4EHTw2eAXKTjDuRLVo-13" value="def selectionMenu()" style="whiteSpace=wrap;html=1;fillColor=#ffe6cc;strokeColor=#d79b00;fontStyle=1" vertex="1" parent="WIyWlLk6GJQsqaUBKTNV-1">
          <mxGeometry x="-2290" y="417.5" width="120" height="60" as="geometry" />
        </mxCell>
        <mxCell id="yD4EHTw2eAXKTjDuRLVo-37" value="" style="edgeStyle=orthogonalEdgeStyle;rounded=0;orthogonalLoop=1;jettySize=auto;html=1;fontStyle=1" edge="1" parent="WIyWlLk6GJQsqaUBKTNV-1" source="yD4EHTw2eAXKTjDuRLVo-21" target="yD4EHTw2eAXKTjDuRLVo-24">
          <mxGeometry relative="1" as="geometry" />
        </mxCell>
        <mxCell id="yD4EHTw2eAXKTjDuRLVo-21" value="print (1. Display Book)" style="whiteSpace=wrap;html=1;fillColor=#ffe6cc;strokeColor=#d79b00;fontStyle=1" vertex="1" parent="WIyWlLk6GJQsqaUBKTNV-1">
          <mxGeometry x="-2010" y="122.5" width="120" height="60" as="geometry" />
        </mxCell>
        <mxCell id="yD4EHTw2eAXKTjDuRLVo-23" value="print (2. Borrow Book)" style="whiteSpace=wrap;html=1;fillColor=#ffe6cc;strokeColor=#d79b00;fontStyle=1" vertex="1" parent="WIyWlLk6GJQsqaUBKTNV-1">
          <mxGeometry x="-2010" y="197.5" width="120" height="60" as="geometry" />
        </mxCell>
        <mxCell id="yD4EHTw2eAXKTjDuRLVo-24" value="print(3. Return Book)" style="whiteSpace=wrap;html=1;fillColor=#ffe6cc;strokeColor=#d79b00;fontStyle=1" vertex="1" parent="WIyWlLk6GJQsqaUBKTNV-1">
          <mxGeometry x="-2010" y="277.5" width="120" height="60" as="geometry" />
        </mxCell>
        <mxCell id="yD4EHTw2eAXKTjDuRLVo-26" value="print(4. View Your Book)" style="whiteSpace=wrap;html=1;fillColor=#ffe6cc;strokeColor=#d79b00;fontStyle=1" vertex="1" parent="WIyWlLk6GJQsqaUBKTNV-1">
          <mxGeometry x="-2010" y="357.5" width="120" height="60" as="geometry" />
        </mxCell>
        <mxCell id="yD4EHTw2eAXKTjDuRLVo-27" value="print(5. Exit)" style="whiteSpace=wrap;html=1;fillColor=#ffe6cc;strokeColor=#d79b00;fontStyle=1" vertex="1" parent="WIyWlLk6GJQsqaUBKTNV-1">
          <mxGeometry x="-2010" y="437.5" width="120" height="60" as="geometry" />
        </mxCell>
        <mxCell id="yD4EHTw2eAXKTjDuRLVo-30" value="" style="strokeWidth=2;html=1;shape=mxgraph.flowchart.annotation_2;align=left;labelPosition=right;pointerEvents=1;rotation=-180;fillColor=#f8cecc;strokeColor=#b85450;fontStyle=1" vertex="1" parent="WIyWlLk6GJQsqaUBKTNV-1">
          <mxGeometry x="-1880" y="147.5" width="90" height="340" as="geometry" />
        </mxCell>
        <mxCell id="yD4EHTw2eAXKTjDuRLVo-92" style="edgeStyle=orthogonalEdgeStyle;rounded=0;orthogonalLoop=1;jettySize=auto;html=1;strokeWidth=2;fillColor=#f8cecc;strokeColor=#b85450;fontStyle=1" edge="1" parent="WIyWlLk6GJQsqaUBKTNV-1" source="yD4EHTw2eAXKTjDuRLVo-35">
          <mxGeometry relative="1" as="geometry">
            <mxPoint x="-1740" y="420" as="targetPoint" />
          </mxGeometry>
        </mxCell>
        <mxCell id="yD4EHTw2eAXKTjDuRLVo-35" value="&lt;span style=&quot;white-space: pre;&quot;&gt;&#x9;&lt;/span&gt;input_action(&amp;nbsp; &amp;nbsp; &amp;nbsp; &amp;nbsp; &amp;nbsp; &amp;nbsp; &amp;nbsp; &amp;nbsp; &amp;nbsp;select&amp;nbsp;&lt;div&gt;&lt;span style=&quot;white-space: pre;&quot;&gt;&#x9;&lt;/span&gt;an option)&lt;/div&gt;" style="shape=parallelogram;perimeter=parallelogramPerimeter;whiteSpace=wrap;html=1;fixedSize=1;align=left;strokeWidth=2;pointerEvents=1;fillColor=#ffe6cc;strokeColor=#d79b00;fontStyle=1" vertex="1" parent="WIyWlLk6GJQsqaUBKTNV-1">
          <mxGeometry x="-1800" y="297.5" width="120" height="60" as="geometry" />
        </mxCell>
        <mxCell id="yD4EHTw2eAXKTjDuRLVo-51" value="" style="endArrow=classic;html=1;rounded=0;strokeWidth=2;fillColor=#f8cecc;strokeColor=#b85450;fontStyle=1" edge="1" parent="WIyWlLk6GJQsqaUBKTNV-1">
          <mxGeometry width="50" height="50" relative="1" as="geometry">
            <mxPoint x="-2080" y="230" as="sourcePoint" />
            <mxPoint x="-2010" y="230" as="targetPoint" />
          </mxGeometry>
        </mxCell>
        <mxCell id="yD4EHTw2eAXKTjDuRLVo-52" value="" style="endArrow=classic;html=1;rounded=0;strokeWidth=2;fillColor=#f8cecc;strokeColor=#b85450;fontStyle=1" edge="1" parent="WIyWlLk6GJQsqaUBKTNV-1">
          <mxGeometry width="50" height="50" relative="1" as="geometry">
            <mxPoint x="-2080" y="309.65999999999997" as="sourcePoint" />
            <mxPoint x="-2010" y="309.65999999999997" as="targetPoint" />
          </mxGeometry>
        </mxCell>
        <mxCell id="yD4EHTw2eAXKTjDuRLVo-53" value="" style="endArrow=classic;html=1;rounded=0;strokeWidth=2;fillColor=#f8cecc;strokeColor=#b85450;fontStyle=1" edge="1" parent="WIyWlLk6GJQsqaUBKTNV-1">
          <mxGeometry width="50" height="50" relative="1" as="geometry">
            <mxPoint x="-2080" y="387.15999999999997" as="sourcePoint" />
            <mxPoint x="-2010" y="387.15999999999997" as="targetPoint" />
          </mxGeometry>
        </mxCell>
        <mxCell id="yD4EHTw2eAXKTjDuRLVo-54" value="" style="endArrow=classic;html=1;rounded=0;strokeWidth=2;fillColor=#f8cecc;strokeColor=#b85450;fontStyle=1" edge="1" parent="WIyWlLk6GJQsqaUBKTNV-1">
          <mxGeometry width="50" height="50" relative="1" as="geometry">
            <mxPoint x="-2080" y="467.16" as="sourcePoint" />
            <mxPoint x="-2010" y="467.16" as="targetPoint" />
          </mxGeometry>
        </mxCell>
        <mxCell id="yD4EHTw2eAXKTjDuRLVo-113" value="" style="edgeStyle=orthogonalEdgeStyle;rounded=0;orthogonalLoop=1;jettySize=auto;html=1;strokeWidth=2;fillColor=#f8cecc;strokeColor=#b85450;fontStyle=1" edge="1" parent="WIyWlLk6GJQsqaUBKTNV-1" source="yD4EHTw2eAXKTjDuRLVo-83" target="yD4EHTw2eAXKTjDuRLVo-112">
          <mxGeometry relative="1" as="geometry" />
        </mxCell>
        <mxCell id="yD4EHTw2eAXKTjDuRLVo-83" value="return input_action" style="whiteSpace=wrap;html=1;align=left;fillColor=#ffe6cc;strokeColor=#d79b00;strokeWidth=2;pointerEvents=1;fontStyle=1" vertex="1" parent="WIyWlLk6GJQsqaUBKTNV-1">
          <mxGeometry x="-1790" y="417.5" width="120" height="60" as="geometry" />
        </mxCell>
        <mxCell id="yD4EHTw2eAXKTjDuRLVo-89" value="" style="edgeStyle=orthogonalEdgeStyle;rounded=0;orthogonalLoop=1;jettySize=auto;html=1;strokeWidth=2;fillColor=#f8cecc;strokeColor=#b85450;fontStyle=1" edge="1" parent="WIyWlLk6GJQsqaUBKTNV-1" source="yD4EHTw2eAXKTjDuRLVo-88" target="yD4EHTw2eAXKTjDuRLVo-6">
          <mxGeometry relative="1" as="geometry" />
        </mxCell>
        <mxCell id="yD4EHTw2eAXKTjDuRLVo-88" value="&lt;span&gt;START&lt;/span&gt;" style="ellipse;whiteSpace=wrap;html=1;fillColor=#ffe6cc;strokeColor=#d79b00;fontStyle=1" vertex="1" parent="WIyWlLk6GJQsqaUBKTNV-1">
          <mxGeometry x="-2450" width="120" height="80" as="geometry" />
        </mxCell>
        <mxCell id="yD4EHTw2eAXKTjDuRLVo-90" value="&lt;span&gt;END&lt;/span&gt;" style="ellipse;whiteSpace=wrap;html=1;fillColor=#ffe6cc;strokeColor=#d79b00;fontStyle=1" vertex="1" parent="WIyWlLk6GJQsqaUBKTNV-1">
          <mxGeometry x="-2450" y="530" width="120" height="80" as="geometry" />
        </mxCell>
        <mxCell id="yD4EHTw2eAXKTjDuRLVo-120" value="" style="edgeStyle=orthogonalEdgeStyle;rounded=0;orthogonalLoop=1;jettySize=auto;html=1;fillColor=#f8cecc;strokeColor=#b85450;strokeWidth=2;fontStyle=1" edge="1" parent="WIyWlLk6GJQsqaUBKTNV-1" source="yD4EHTw2eAXKTjDuRLVo-112" target="yD4EHTw2eAXKTjDuRLVo-119">
          <mxGeometry relative="1" as="geometry" />
        </mxCell>
        <mxCell id="yD4EHTw2eAXKTjDuRLVo-129" value="Yes" style="edgeLabel;html=1;align=center;verticalAlign=middle;resizable=0;points=[];fontStyle=1" vertex="1" connectable="0" parent="yD4EHTw2eAXKTjDuRLVo-120">
          <mxGeometry x="-0.2933" y="1" relative="1" as="geometry">
            <mxPoint x="2" y="-18" as="offset" />
          </mxGeometry>
        </mxCell>
        <mxCell id="yD4EHTw2eAXKTjDuRLVo-130" value="" style="edgeStyle=orthogonalEdgeStyle;rounded=0;orthogonalLoop=1;jettySize=auto;html=1;strokeWidth=2;fillColor=#f8cecc;strokeColor=#b85450;fontStyle=1" edge="1" parent="WIyWlLk6GJQsqaUBKTNV-1" source="yD4EHTw2eAXKTjDuRLVo-112" target="yD4EHTw2eAXKTjDuRLVo-114">
          <mxGeometry relative="1" as="geometry" />
        </mxCell>
        <mxCell id="yD4EHTw2eAXKTjDuRLVo-134" value="No" style="edgeLabel;html=1;align=center;verticalAlign=middle;resizable=0;points=[];fontStyle=1" vertex="1" connectable="0" parent="yD4EHTw2eAXKTjDuRLVo-130">
          <mxGeometry x="-0.4987" relative="1" as="geometry">
            <mxPoint as="offset" />
          </mxGeometry>
        </mxCell>
        <mxCell id="yD4EHTw2eAXKTjDuRLVo-112" value="&amp;nbsp; &amp;nbsp; &amp;nbsp; &amp;nbsp;input&amp;nbsp;&lt;div&gt;&amp;nbsp; &amp;nbsp; &amp;nbsp; &amp;nbsp;== 1&amp;nbsp;&lt;/div&gt;" style="rhombus;whiteSpace=wrap;html=1;align=left;fillColor=#ffe6cc;strokeColor=#d79b00;strokeWidth=2;pointerEvents=1;fontStyle=1" vertex="1" parent="WIyWlLk6GJQsqaUBKTNV-1">
          <mxGeometry x="-1770" y="547.5" width="80" height="80" as="geometry" />
        </mxCell>
        <mxCell id="yD4EHTw2eAXKTjDuRLVo-122" value="" style="edgeStyle=orthogonalEdgeStyle;rounded=0;orthogonalLoop=1;jettySize=auto;html=1;strokeWidth=2;fillColor=#f8cecc;strokeColor=#b85450;fontStyle=1" edge="1" parent="WIyWlLk6GJQsqaUBKTNV-1" source="yD4EHTw2eAXKTjDuRLVo-114" target="yD4EHTw2eAXKTjDuRLVo-121">
          <mxGeometry relative="1" as="geometry" />
        </mxCell>
        <mxCell id="yD4EHTw2eAXKTjDuRLVo-141" value="Yes" style="edgeLabel;html=1;align=center;verticalAlign=middle;resizable=0;points=[];fontStyle=1" vertex="1" connectable="0" parent="yD4EHTw2eAXKTjDuRLVo-122">
          <mxGeometry x="-0.4" y="2" relative="1" as="geometry">
            <mxPoint x="-2" y="-14" as="offset" />
          </mxGeometry>
        </mxCell>
        <mxCell id="yD4EHTw2eAXKTjDuRLVo-131" value="" style="edgeStyle=orthogonalEdgeStyle;rounded=0;orthogonalLoop=1;jettySize=auto;html=1;fillColor=#f8cecc;strokeColor=#b85450;strokeWidth=2;fontStyle=1" edge="1" parent="WIyWlLk6GJQsqaUBKTNV-1" source="yD4EHTw2eAXKTjDuRLVo-114" target="yD4EHTw2eAXKTjDuRLVo-115">
          <mxGeometry relative="1" as="geometry" />
        </mxCell>
        <mxCell id="yD4EHTw2eAXKTjDuRLVo-135" value="No" style="edgeLabel;html=1;align=center;verticalAlign=middle;resizable=0;points=[];fontStyle=1" vertex="1" connectable="0" parent="yD4EHTw2eAXKTjDuRLVo-131">
          <mxGeometry x="-0.6836" y="1" relative="1" as="geometry">
            <mxPoint x="9" as="offset" />
          </mxGeometry>
        </mxCell>
        <mxCell id="yD4EHTw2eAXKTjDuRLVo-114" value="&amp;nbsp; &amp;nbsp; &amp;nbsp; &amp;nbsp;input&amp;nbsp;&lt;div&gt;&amp;nbsp; &amp;nbsp; &amp;nbsp; &amp;nbsp;== 2&lt;/div&gt;" style="rhombus;whiteSpace=wrap;html=1;align=left;fillColor=#ffe6cc;strokeColor=#d79b00;strokeWidth=2;pointerEvents=1;fontStyle=1" vertex="1" parent="WIyWlLk6GJQsqaUBKTNV-1">
          <mxGeometry x="-1770" y="662.5" width="80" height="80" as="geometry" />
        </mxCell>
        <mxCell id="yD4EHTw2eAXKTjDuRLVo-124" value="" style="edgeStyle=orthogonalEdgeStyle;rounded=0;orthogonalLoop=1;jettySize=auto;html=1;fillColor=#f8cecc;strokeColor=#b85450;strokeWidth=2;fontStyle=1" edge="1" parent="WIyWlLk6GJQsqaUBKTNV-1" source="yD4EHTw2eAXKTjDuRLVo-115" target="yD4EHTw2eAXKTjDuRLVo-123">
          <mxGeometry relative="1" as="geometry" />
        </mxCell>
        <mxCell id="yD4EHTw2eAXKTjDuRLVo-140" value="Yes" style="edgeLabel;html=1;align=center;verticalAlign=middle;resizable=0;points=[];fontStyle=1" vertex="1" connectable="0" parent="yD4EHTw2eAXKTjDuRLVo-124">
          <mxGeometry x="0.0267" y="-2" relative="1" as="geometry">
            <mxPoint x="1" y="-8" as="offset" />
          </mxGeometry>
        </mxCell>
        <mxCell id="yD4EHTw2eAXKTjDuRLVo-132" value="" style="edgeStyle=orthogonalEdgeStyle;rounded=0;orthogonalLoop=1;jettySize=auto;html=1;fillColor=#f8cecc;strokeColor=#b85450;strokeWidth=2;fontStyle=1" edge="1" parent="WIyWlLk6GJQsqaUBKTNV-1" source="yD4EHTw2eAXKTjDuRLVo-115" target="yD4EHTw2eAXKTjDuRLVo-116">
          <mxGeometry relative="1" as="geometry" />
        </mxCell>
        <mxCell id="yD4EHTw2eAXKTjDuRLVo-136" value="No" style="edgeLabel;html=1;align=center;verticalAlign=middle;resizable=0;points=[];fontStyle=1" vertex="1" connectable="0" parent="yD4EHTw2eAXKTjDuRLVo-132">
          <mxGeometry x="0.216" y="1" relative="1" as="geometry">
            <mxPoint x="9" as="offset" />
          </mxGeometry>
        </mxCell>
        <mxCell id="yD4EHTw2eAXKTjDuRLVo-115" value="&amp;nbsp; &amp;nbsp; &amp;nbsp; &amp;nbsp;input&amp;nbsp;&lt;div&gt;&amp;nbsp; &amp;nbsp; &amp;nbsp; &amp;nbsp;== 3&amp;nbsp;&lt;/div&gt;" style="rhombus;whiteSpace=wrap;html=1;align=left;fillColor=#ffe6cc;strokeColor=#d79b00;strokeWidth=2;pointerEvents=1;fontStyle=1" vertex="1" parent="WIyWlLk6GJQsqaUBKTNV-1">
          <mxGeometry x="-1770" y="770" width="80" height="80" as="geometry" />
        </mxCell>
        <mxCell id="yD4EHTw2eAXKTjDuRLVo-126" value="" style="edgeStyle=orthogonalEdgeStyle;rounded=0;orthogonalLoop=1;jettySize=auto;html=1;fillColor=#f8cecc;strokeColor=#b85450;strokeWidth=2;fontStyle=1" edge="1" parent="WIyWlLk6GJQsqaUBKTNV-1" source="yD4EHTw2eAXKTjDuRLVo-116" target="yD4EHTw2eAXKTjDuRLVo-125">
          <mxGeometry relative="1" as="geometry" />
        </mxCell>
        <mxCell id="yD4EHTw2eAXKTjDuRLVo-133" value="" style="edgeStyle=orthogonalEdgeStyle;rounded=0;orthogonalLoop=1;jettySize=auto;html=1;fontStyle=1" edge="1" parent="WIyWlLk6GJQsqaUBKTNV-1" source="yD4EHTw2eAXKTjDuRLVo-116" target="yD4EHTw2eAXKTjDuRLVo-117">
          <mxGeometry relative="1" as="geometry" />
        </mxCell>
        <mxCell id="yD4EHTw2eAXKTjDuRLVo-137" value="No" style="edgeLabel;html=1;align=center;verticalAlign=middle;resizable=0;points=[];fontStyle=1" vertex="1" connectable="0" parent="yD4EHTw2eAXKTjDuRLVo-133">
          <mxGeometry x="0.424" y="-1" relative="1" as="geometry">
            <mxPoint x="11" as="offset" />
          </mxGeometry>
        </mxCell>
        <mxCell id="yD4EHTw2eAXKTjDuRLVo-116" value="&amp;nbsp; &amp;nbsp; &amp;nbsp; &amp;nbsp;input&amp;nbsp;&lt;div&gt;&amp;nbsp; &amp;nbsp; &amp;nbsp; &amp;nbsp;== 4&lt;/div&gt;" style="rhombus;whiteSpace=wrap;html=1;align=left;fillColor=#ffe6cc;strokeColor=#d79b00;strokeWidth=2;pointerEvents=1;fontStyle=1" vertex="1" parent="WIyWlLk6GJQsqaUBKTNV-1">
          <mxGeometry x="-1770" y="880" width="80" height="80" as="geometry" />
        </mxCell>
        <mxCell id="yD4EHTw2eAXKTjDuRLVo-128" value="" style="edgeStyle=orthogonalEdgeStyle;rounded=0;orthogonalLoop=1;jettySize=auto;html=1;fillColor=#f8cecc;strokeColor=#b85450;strokeWidth=2;fontStyle=1" edge="1" parent="WIyWlLk6GJQsqaUBKTNV-1" source="yD4EHTw2eAXKTjDuRLVo-117" target="yD4EHTw2eAXKTjDuRLVo-127">
          <mxGeometry relative="1" as="geometry" />
        </mxCell>
        <mxCell id="yD4EHTw2eAXKTjDuRLVo-138" value="Yes" style="edgeLabel;html=1;align=center;verticalAlign=middle;resizable=0;points=[];fontStyle=1" vertex="1" connectable="0" parent="yD4EHTw2eAXKTjDuRLVo-128">
          <mxGeometry x="0.1333" y="-1" relative="1" as="geometry">
            <mxPoint x="4" y="-9" as="offset" />
          </mxGeometry>
        </mxCell>
        <mxCell id="yD4EHTw2eAXKTjDuRLVo-117" value="&amp;nbsp; &amp;nbsp; &amp;nbsp; &amp;nbsp;input&amp;nbsp;&lt;div&gt;&amp;nbsp; &amp;nbsp; &amp;nbsp; &amp;nbsp;== 5&lt;/div&gt;" style="rhombus;whiteSpace=wrap;html=1;align=left;fillColor=#ffe6cc;strokeColor=#d79b00;strokeWidth=2;pointerEvents=1;fontStyle=1" vertex="1" parent="WIyWlLk6GJQsqaUBKTNV-1">
          <mxGeometry x="-1770" y="990" width="80" height="80" as="geometry" />
        </mxCell>
        <mxCell id="yD4EHTw2eAXKTjDuRLVo-146" value="" style="edgeStyle=orthogonalEdgeStyle;rounded=0;orthogonalLoop=1;jettySize=auto;html=1;fillColor=#f8cecc;strokeColor=#b85450;strokeWidth=2;fontStyle=1" edge="1" parent="WIyWlLk6GJQsqaUBKTNV-1" source="yD4EHTw2eAXKTjDuRLVo-119" target="yD4EHTw2eAXKTjDuRLVo-145">
          <mxGeometry relative="1" as="geometry" />
        </mxCell>
        <mxCell id="yD4EHTw2eAXKTjDuRLVo-119" value="&amp;nbsp;Class DisplayBook" style="shape=document;whiteSpace=wrap;html=1;boundedLbl=1;align=center;fillColor=#ffe6cc;strokeColor=#d79b00;strokeWidth=2;pointerEvents=1;fontStyle=1" vertex="1" parent="WIyWlLk6GJQsqaUBKTNV-1">
          <mxGeometry x="-1950" y="547.5" width="120" height="80" as="geometry" />
        </mxCell>
        <mxCell id="yD4EHTw2eAXKTjDuRLVo-148" value="" style="edgeStyle=orthogonalEdgeStyle;rounded=0;orthogonalLoop=1;jettySize=auto;html=1;fillColor=#f8cecc;strokeColor=#b85450;strokeWidth=2;fontStyle=1" edge="1" parent="WIyWlLk6GJQsqaUBKTNV-1" source="yD4EHTw2eAXKTjDuRLVo-121" target="yD4EHTw2eAXKTjDuRLVo-147">
          <mxGeometry relative="1" as="geometry" />
        </mxCell>
        <mxCell id="yD4EHTw2eAXKTjDuRLVo-121" value="Class BorrowBook" style="shape=document;whiteSpace=wrap;html=1;boundedLbl=1;align=center;fillColor=#ffe6cc;strokeColor=#d79b00;strokeWidth=2;pointerEvents=1;fontStyle=1" vertex="1" parent="WIyWlLk6GJQsqaUBKTNV-1">
          <mxGeometry x="-1950" y="662.5" width="120" height="80" as="geometry" />
        </mxCell>
        <mxCell id="yD4EHTw2eAXKTjDuRLVo-150" value="" style="edgeStyle=orthogonalEdgeStyle;rounded=0;orthogonalLoop=1;jettySize=auto;html=1;fillColor=#f8cecc;strokeColor=#b85450;strokeWidth=2;fontStyle=1" edge="1" parent="WIyWlLk6GJQsqaUBKTNV-1" source="yD4EHTw2eAXKTjDuRLVo-123" target="yD4EHTw2eAXKTjDuRLVo-149">
          <mxGeometry relative="1" as="geometry" />
        </mxCell>
        <mxCell id="yD4EHTw2eAXKTjDuRLVo-123" value="&amp;nbsp;Class Return Book" style="shape=document;whiteSpace=wrap;html=1;boundedLbl=1;align=center;fillColor=#ffe6cc;strokeColor=#d79b00;strokeWidth=2;pointerEvents=1;fontStyle=1" vertex="1" parent="WIyWlLk6GJQsqaUBKTNV-1">
          <mxGeometry x="-1950" y="770" width="120" height="80" as="geometry" />
        </mxCell>
        <mxCell id="yD4EHTw2eAXKTjDuRLVo-152" value="" style="edgeStyle=orthogonalEdgeStyle;rounded=0;orthogonalLoop=1;jettySize=auto;html=1;fillColor=#f8cecc;strokeColor=#b85450;strokeWidth=2;fontStyle=1" edge="1" parent="WIyWlLk6GJQsqaUBKTNV-1" source="yD4EHTw2eAXKTjDuRLVo-125" target="yD4EHTw2eAXKTjDuRLVo-151">
          <mxGeometry relative="1" as="geometry" />
        </mxCell>
        <mxCell id="yD4EHTw2eAXKTjDuRLVo-125" value="Class View Your Book" style="shape=document;whiteSpace=wrap;html=1;boundedLbl=1;align=center;fillColor=#ffe6cc;strokeColor=#d79b00;strokeWidth=2;pointerEvents=1;fontStyle=1" vertex="1" parent="WIyWlLk6GJQsqaUBKTNV-1">
          <mxGeometry x="-1950" y="880" width="120" height="80" as="geometry" />
        </mxCell>
        <mxCell id="yD4EHTw2eAXKTjDuRLVo-156" value="" style="edgeStyle=orthogonalEdgeStyle;rounded=0;orthogonalLoop=1;jettySize=auto;html=1;fillColor=#f8cecc;strokeColor=#b85450;strokeWidth=2;fontStyle=1" edge="1" parent="WIyWlLk6GJQsqaUBKTNV-1" source="yD4EHTw2eAXKTjDuRLVo-127" target="yD4EHTw2eAXKTjDuRLVo-155">
          <mxGeometry relative="1" as="geometry" />
        </mxCell>
        <mxCell id="yD4EHTw2eAXKTjDuRLVo-127" value="Class Exit" style="shape=document;whiteSpace=wrap;html=1;boundedLbl=1;align=center;fillColor=#ffe6cc;strokeColor=#d79b00;strokeWidth=2;pointerEvents=1;fontStyle=1" vertex="1" parent="WIyWlLk6GJQsqaUBKTNV-1">
          <mxGeometry x="-1950" y="990" width="120" height="80" as="geometry" />
        </mxCell>
        <mxCell id="yD4EHTw2eAXKTjDuRLVo-139" value="Yes" style="text;html=1;align=center;verticalAlign=middle;resizable=0;points=[];autosize=1;strokeColor=none;fillColor=none;fontStyle=1" vertex="1" parent="WIyWlLk6GJQsqaUBKTNV-1">
          <mxGeometry x="-1820" y="890" width="40" height="30" as="geometry" />
        </mxCell>
        <mxCell id="yD4EHTw2eAXKTjDuRLVo-157" style="edgeStyle=orthogonalEdgeStyle;rounded=0;orthogonalLoop=1;jettySize=auto;html=1;entryX=0.5;entryY=1;entryDx=0;entryDy=0;fillColor=#f8cecc;strokeColor=#b85450;strokeWidth=2;fontStyle=1" edge="1" parent="WIyWlLk6GJQsqaUBKTNV-1" source="yD4EHTw2eAXKTjDuRLVo-145" target="yD4EHTw2eAXKTjDuRLVo-13">
          <mxGeometry relative="1" as="geometry" />
        </mxCell>
        <mxCell id="yD4EHTw2eAXKTjDuRLVo-145" value="type_action()" style="whiteSpace=wrap;html=1;align=center;fillColor=#ffe6cc;strokeColor=#d79b00;strokeWidth=2;pointerEvents=1;fontStyle=1" vertex="1" parent="WIyWlLk6GJQsqaUBKTNV-1">
          <mxGeometry x="-2150" y="557.5" width="120" height="60" as="geometry" />
        </mxCell>
        <mxCell id="yD4EHTw2eAXKTjDuRLVo-158" style="edgeStyle=orthogonalEdgeStyle;rounded=0;orthogonalLoop=1;jettySize=auto;html=1;fillColor=#f8cecc;strokeColor=#b85450;strokeWidth=2;fontStyle=1" edge="1" parent="WIyWlLk6GJQsqaUBKTNV-1" source="yD4EHTw2eAXKTjDuRLVo-147" target="yD4EHTw2eAXKTjDuRLVo-13">
          <mxGeometry relative="1" as="geometry" />
        </mxCell>
        <mxCell id="yD4EHTw2eAXKTjDuRLVo-147" value="&lt;span style=&quot;&quot;&gt;type_action()&lt;/span&gt;" style="whiteSpace=wrap;html=1;align=center;fillColor=#ffe6cc;strokeColor=#d79b00;strokeWidth=2;pointerEvents=1;fontStyle=1" vertex="1" parent="WIyWlLk6GJQsqaUBKTNV-1">
          <mxGeometry x="-2150" y="672.5" width="120" height="60" as="geometry" />
        </mxCell>
        <mxCell id="yD4EHTw2eAXKTjDuRLVo-159" style="edgeStyle=orthogonalEdgeStyle;rounded=0;orthogonalLoop=1;jettySize=auto;html=1;fillColor=#f8cecc;strokeColor=#b85450;strokeWidth=2;fontStyle=1" edge="1" parent="WIyWlLk6GJQsqaUBKTNV-1" source="yD4EHTw2eAXKTjDuRLVo-149">
          <mxGeometry relative="1" as="geometry">
            <mxPoint x="-2230" y="480" as="targetPoint" />
          </mxGeometry>
        </mxCell>
        <mxCell id="yD4EHTw2eAXKTjDuRLVo-149" value="&lt;span style=&quot;&quot;&gt;type_action()&lt;/span&gt;" style="whiteSpace=wrap;html=1;align=center;fillColor=#ffe6cc;strokeColor=#d79b00;strokeWidth=2;pointerEvents=1;fontStyle=1" vertex="1" parent="WIyWlLk6GJQsqaUBKTNV-1">
          <mxGeometry x="-2150" y="780" width="120" height="60" as="geometry" />
        </mxCell>
        <mxCell id="yD4EHTw2eAXKTjDuRLVo-160" style="edgeStyle=orthogonalEdgeStyle;rounded=0;orthogonalLoop=1;jettySize=auto;html=1;fillColor=#f8cecc;strokeColor=#b85450;strokeWidth=2;fontStyle=1" edge="1" parent="WIyWlLk6GJQsqaUBKTNV-1" source="yD4EHTw2eAXKTjDuRLVo-151">
          <mxGeometry relative="1" as="geometry">
            <mxPoint x="-2230" y="480" as="targetPoint" />
          </mxGeometry>
        </mxCell>
        <mxCell id="yD4EHTw2eAXKTjDuRLVo-151" value="&lt;span style=&quot;&quot;&gt;type_action()&lt;/span&gt;" style="rounded=1;whiteSpace=wrap;html=1;align=center;fillColor=#ffe6cc;strokeColor=#d79b00;strokeWidth=2;pointerEvents=1;fontStyle=1" vertex="1" parent="WIyWlLk6GJQsqaUBKTNV-1">
          <mxGeometry x="-2150" y="890" width="120" height="60" as="geometry" />
        </mxCell>
        <mxCell id="yD4EHTw2eAXKTjDuRLVo-165" value="" style="edgeStyle=orthogonalEdgeStyle;rounded=0;orthogonalLoop=1;jettySize=auto;html=1;fontStyle=1" edge="1" parent="WIyWlLk6GJQsqaUBKTNV-1" source="yD4EHTw2eAXKTjDuRLVo-155" target="yD4EHTw2eAXKTjDuRLVo-164">
          <mxGeometry relative="1" as="geometry" />
        </mxCell>
        <mxCell id="yD4EHTw2eAXKTjDuRLVo-155" value="&lt;span style=&quot;&quot;&gt;type_action()&lt;/span&gt;" style="whiteSpace=wrap;html=1;align=center;fillColor=#ffe6cc;strokeColor=#d79b00;strokeWidth=2;pointerEvents=1;fontStyle=1" vertex="1" parent="WIyWlLk6GJQsqaUBKTNV-1">
          <mxGeometry x="-2150" y="1000" width="120" height="60" as="geometry" />
        </mxCell>
        <mxCell id="yD4EHTw2eAXKTjDuRLVo-166" style="edgeStyle=orthogonalEdgeStyle;rounded=0;orthogonalLoop=1;jettySize=auto;html=1;entryX=1;entryY=1;entryDx=0;entryDy=0;fillColor=#f8cecc;strokeColor=#b85450;strokeWidth=2;fontStyle=1" edge="1" parent="WIyWlLk6GJQsqaUBKTNV-1" source="yD4EHTw2eAXKTjDuRLVo-164" target="yD4EHTw2eAXKTjDuRLVo-11">
          <mxGeometry relative="1" as="geometry">
            <mxPoint x="-2300" y="490" as="targetPoint" />
            <Array as="points">
              <mxPoint x="-2290" y="746" />
              <mxPoint x="-2310" y="746" />
              <mxPoint x="-2310" y="490" />
              <mxPoint x="-2370" y="490" />
            </Array>
          </mxGeometry>
        </mxCell>
        <mxCell id="yD4EHTw2eAXKTjDuRLVo-164" value="decision == false" style="whiteSpace=wrap;html=1;fillColor=#ffe6cc;strokeColor=#d79b00;strokeWidth=2;pointerEvents=1;fontStyle=1" vertex="1" parent="WIyWlLk6GJQsqaUBKTNV-1">
          <mxGeometry x="-2350" y="1000" width="120" height="60" as="geometry" />
        </mxCell>
      </root>
    </mxGraphModel>
  </diagram>
</mxfile>
